# xmcd CD database file
#
# Track frame offsets:
#	150
#	29868
#	55505
#	76235
#	107190
#	140359
#	171973
#	200671
#	226279
#
# Disc length: 3378 seconds
#
# Revision: 0
# Processed by: cddbd v1.5.2PL0 Copyright (c) Steve Scherf et al.
# Submitted via: CDex 1.51
#
DISCID=780d3009
DTITLE=PACO CHARLERY Quintet - Lespwa
DYEAR=1900
DGENRE=Jazz
TTITLE0=Lespwa
TTITLE1=Fiesta
TTITLE2=Africa
TTITLE3=Couleurs
TTITLE4=Cuba
TTITLE5=Miles's Mood
TTITLE6=Funky Blues
TTITLE7=Eric's Theme
TTITLE8=Carnival
EXTD=
EXTT0=
EXTT1=
EXTT2=
EXTT3=
EXTT4=
EXTT5=
EXTT6=
EXTT7=
EXTT8=
PLAYORDER=
